<?xml version="1.0" encoding="UTF-8" standalone="no"?>
<!DOCTYPE svg PUBLIC "-//W3C//DTD SVG 1.1//EN"
 "http://www.w3.org/Graphics/SVG/1.1/DTD/svg11.dtd">
<!-- Generated by graphviz version 2.40.1 (20161225.0304)
 -->
<!-- Title: %3 Pages: 1 -->
<svg width="555pt" height="260pt"
 viewBox="0.00 0.00 555.13 260.00" xmlns="http://www.w3.org/2000/svg" xmlns:xlink="http://www.w3.org/1999/xlink">
<g id="graph0" class="graph" transform="scale(1 1) rotate(0) translate(4 256)">
<title>%3</title>
<polygon fill="#ffffff" stroke="transparent" points="-4,4 -4,-256 551.1323,-256 551.1323,4 -4,4"/>
<!--   -->
<g id="node1" class="node">
<title> </title>
<ellipse fill="none" stroke="#cccccc" cx="303.1989" cy="-234" rx="27" ry="18"/>
<text text-anchor="middle" x="303.1989" y="-229.8" font-family="Times,serif" font-size="14.00" fill="#000000"> </text>
</g>
<!-- Service -->
<g id="node2" class="node">
<title>Service</title>
<ellipse fill="none" stroke="#999999" cx="158.1989" cy="-162" rx="36.7489" ry="18"/>
<text text-anchor="middle" x="158.1989" y="-157.8" font-family="Times,serif" font-size="14.00" fill="#000000">Service</text>
</g>
<!--  &#45;&gt;Service -->
<g id="edge1" class="edge">
<title> &#45;&gt;Service</title>
<path fill="none" stroke="#000000" d="M281.491,-223.2209C258.1693,-211.6405 220.756,-193.0628 193.2527,-179.406"/>
<polygon fill="#000000" stroke="#000000" points="194.4903,-176.1129 183.9771,-174.8002 191.3771,-182.3825 194.4903,-176.1129"/>
</g>
<!-- Research -->
<g id="node3" class="node">
<title>Research</title>
<ellipse fill="none" stroke="#999999" cx="255.1989" cy="-162" rx="42.5283" ry="18"/>
<text text-anchor="middle" x="255.1989" y="-157.8" font-family="Times,serif" font-size="14.00" fill="#000000">Research</text>
</g>
<!--  &#45;&gt;Research -->
<g id="edge2" class="edge">
<title> &#45;&gt;Research</title>
<path fill="none" stroke="#000000" d="M292.0661,-217.3008C286.2987,-208.6496 279.1238,-197.8873 272.6405,-188.1623"/>
<polygon fill="#000000" stroke="#000000" points="275.4003,-185.9922 266.941,-179.6132 269.5759,-189.8752 275.4003,-185.9922"/>
</g>
<!-- Classes -->
<g id="node4" class="node">
<title>Classes</title>
<ellipse fill="none" stroke="#999999" cx="352.1989" cy="-162" rx="36.775" ry="18"/>
<text text-anchor="middle" x="352.1989" y="-157.8" font-family="Times,serif" font-size="14.00" fill="#000000">Classes</text>
</g>
<!--  &#45;&gt;Classes -->
<g id="edge3" class="edge">
<title> &#45;&gt;Classes</title>
<path fill="none" stroke="#000000" d="M314.5637,-217.3008C320.5988,-208.4329 328.1436,-197.3465 334.8902,-187.4332"/>
<polygon fill="#000000" stroke="#000000" points="337.8228,-189.345 340.5555,-179.1086 332.0358,-185.4066 337.8228,-189.345"/>
</g>
<!-- Fun -->
<g id="node5" class="node">
<title>Fun</title>
<ellipse fill="none" stroke="#999999" cx="434.1989" cy="-162" rx="27" ry="18"/>
<text text-anchor="middle" x="434.1989" y="-157.8" font-family="Times,serif" font-size="14.00" fill="#000000">Fun</text>
</g>
<!--  &#45;&gt;Fun -->
<g id="edge4" class="edge">
<title> &#45;&gt;Fun</title>
<path fill="none" stroke="#000000" d="M324.2463,-222.432C345.9231,-210.518 379.8984,-191.8446 404.346,-178.4077"/>
<polygon fill="#000000" stroke="#000000" points="406.126,-181.4233 413.2037,-173.5393 402.7543,-175.2888 406.126,-181.4233"/>
</g>
<!-- B&#39;more First -->
<g id="node6" class="node">
<title>B&#39;more First</title>
<ellipse fill="none" stroke="#666666" cx="54.1989" cy="-90" rx="54.3986" ry="18"/>
<text text-anchor="middle" x="54.1989" y="-85.8" font-family="Times,serif" font-size="14.00" fill="#000000">B&#39;more First</text>
</g>
<!-- Service&#45;&gt;B&#39;more First -->
<g id="edge5" class="edge">
<title>Service&#45;&gt;B&#39;more First</title>
<path fill="none" stroke="#000000" d="M136.902,-147.256C122.3276,-137.166 102.7398,-123.6052 86.2855,-112.2138"/>
<polygon fill="#000000" stroke="#000000" points="88.2239,-109.2989 78.0097,-106.4844 84.2394,-115.0542 88.2239,-109.2989"/>
</g>
<!-- Politics -->
<g id="node7" class="node">
<title>Politics</title>
<ellipse fill="none" stroke="#666666" cx="163.1989" cy="-90" rx="36.7836" ry="18"/>
<text text-anchor="middle" x="163.1989" y="-85.8" font-family="Times,serif" font-size="14.00" fill="#000000">Politics</text>
</g>
<!-- Service&#45;&gt;Politics -->
<g id="edge6" class="edge">
<title>Service&#45;&gt;Politics</title>
<path fill="none" stroke="#000000" d="M159.4606,-143.8314C159.9954,-136.131 160.6313,-126.9743 161.2255,-118.4166"/>
<polygon fill="#000000" stroke="#000000" points="164.7189,-118.6317 161.9202,-108.4133 157.7358,-118.1467 164.7189,-118.6317"/>
</g>
<!-- Health -->
<g id="node8" class="node">
<title>Health</title>
<ellipse fill="none" stroke="#666666" cx="255.1989" cy="-90" rx="33.8596" ry="18"/>
<text text-anchor="middle" x="255.1989" y="-85.8" font-family="Times,serif" font-size="14.00" fill="#000000">Health</text>
</g>
<!-- Research&#45;&gt;Health -->
<g id="edge7" class="edge">
<title>Research&#45;&gt;Health</title>
<path fill="none" stroke="#000000" d="M255.1989,-143.8314C255.1989,-136.131 255.1989,-126.9743 255.1989,-118.4166"/>
<polygon fill="#000000" stroke="#000000" points="258.699,-118.4132 255.1989,-108.4133 251.699,-118.4133 258.699,-118.4132"/>
</g>
<!-- Wellness -->
<g id="node9" class="node">
<title>Wellness</title>
<ellipse fill="none" stroke="#666666" cx="391.1989" cy="-90" rx="41.6387" ry="18"/>
<text text-anchor="middle" x="391.1989" y="-85.8" font-family="Times,serif" font-size="14.00" fill="#000000">Wellness</text>
</g>
<!-- Fun&#45;&gt;Wellness -->
<g id="edge8" class="edge">
<title>Fun&#45;&gt;Wellness</title>
<path fill="none" stroke="#000000" d="M424.0085,-144.937C418.8893,-136.3654 412.5743,-125.7914 406.856,-116.2165"/>
<polygon fill="#000000" stroke="#000000" points="409.7472,-114.2315 401.6149,-107.4407 403.7374,-117.8207 409.7472,-114.2315"/>
</g>
<!-- Animation -->
<g id="node10" class="node">
<title>Animation</title>
<ellipse fill="none" stroke="#666666" cx="499.1989" cy="-90" rx="47.8668" ry="18"/>
<text text-anchor="middle" x="499.1989" y="-85.8" font-family="Times,serif" font-size="14.00" fill="#000000">Animation</text>
</g>
<!-- Fun&#45;&gt;Animation -->
<g id="edge9" class="edge">
<title>Fun&#45;&gt;Animation</title>
<path fill="none" stroke="#000000" d="M448.303,-146.3771C456.634,-137.1489 467.3697,-125.257 476.832,-114.7757"/>
<polygon fill="#000000" stroke="#000000" points="479.6557,-116.871 483.7588,-107.1029 474.4598,-112.1803 479.6557,-116.871"/>
</g>
<!-- NYT -->
<g id="node11" class="node">
<title>NYT</title>
<ellipse fill="none" stroke="#000000" cx="122.1989" cy="-18" rx="28.0651" ry="18"/>
<text text-anchor="middle" x="122.1989" y="-13.8" font-family="Times,serif" font-size="14.00" fill="#000000">NYT</text>
</g>
<!-- Politics&#45;&gt;NYT -->
<g id="edge10" class="edge">
<title>Politics&#45;&gt;NYT</title>
<path fill="none" stroke="#000000" d="M153.274,-72.5708C148.3889,-63.9922 142.4007,-53.4762 136.9892,-43.9732"/>
<polygon fill="#000000" stroke="#000000" points="140.0224,-42.2266 132.0325,-35.2687 133.9395,-45.6905 140.0224,-42.2266"/>
</g>
<!-- Letters -->
<g id="node12" class="node">
<title>Letters</title>
<ellipse fill="none" stroke="#000000" cx="203.1989" cy="-18" rx="34.8198" ry="18"/>
<text text-anchor="middle" x="203.1989" y="-13.8" font-family="Times,serif" font-size="14.00" fill="#000000">Letters</text>
</g>
<!-- Politics&#45;&gt;Letters -->
<g id="edge11" class="edge">
<title>Politics&#45;&gt;Letters</title>
<path fill="none" stroke="#000000" d="M172.8818,-72.5708C177.5639,-64.1431 183.2848,-53.8455 188.4903,-44.4755"/>
<polygon fill="#000000" stroke="#000000" points="191.6696,-45.9596 193.4666,-35.5182 185.5505,-42.5601 191.6696,-45.9596"/>
</g>
<!-- Cooking -->
<g id="node13" class="node">
<title>Cooking</title>
<ellipse fill="none" stroke="#000000" cx="341.1989" cy="-18" rx="40.6421" ry="18"/>
<text text-anchor="middle" x="341.1989" y="-13.8" font-family="Times,serif" font-size="14.00" fill="#000000">Cooking</text>
</g>
<!-- Wellness&#45;&gt;Cooking -->
<g id="edge12" class="edge">
<title>Wellness&#45;&gt;Cooking</title>
<path fill="none" stroke="#000000" d="M379.0953,-72.5708C373.0766,-63.9038 365.6845,-53.2592 359.032,-43.6796"/>
<polygon fill="#000000" stroke="#000000" points="361.7699,-41.486 353.1911,-35.2687 356.0203,-45.4788 361.7699,-41.486"/>
</g>
<!-- Exercise -->
<g id="node14" class="node">
<title>Exercise</title>
<ellipse fill="none" stroke="#000000" cx="440.1989" cy="-18" rx="40.5989" ry="18"/>
<text text-anchor="middle" x="440.1989" y="-13.8" font-family="Times,serif" font-size="14.00" fill="#000000">Exercise</text>
</g>
<!-- Wellness&#45;&gt;Exercise -->
<g id="edge13" class="edge">
<title>Wellness&#45;&gt;Exercise</title>
<path fill="none" stroke="#000000" d="M403.0605,-72.5708C408.9588,-63.9038 416.2031,-53.2592 422.7225,-43.6796"/>
<polygon fill="#000000" stroke="#000000" points="425.7138,-45.505 428.4466,-35.2687 419.9268,-41.5666 425.7138,-45.505"/>
</g>
</g>
</svg>
